# xmcd
#
# Track frame offsets: 
#        150
#        12417
#        24332
#        37769
#        51163
#        63061
#        78753
#        88854
#        100605
#        115874
#        127267
#        142616
#        157610
#        172790
#        186068
#
# Disc length: 2615 seconds
#
# Revision: 0
# Processed by: cddbd v1.5.2PL0 Copyright (c) Steve Scherf et al.
# Submitted via: ExactAudioCopyFreeDBPlugin 1.0
#
DISCID=a10a350f
DTITLE=Karin Wright - Too Rock 'N' Roll For Country...
DYEAR=2011
DGENRE=Country
TTITLE0=Too Rock 'N' Roll For Country (Too Country For Rock 'N' Roll)
TTITLE1=Dancing In My Mind
TTITLE2=Bit By Bit
TTITLE3=Long Lost Highway
TTITLE4=The Fool
TTITLE5=Land In Sight
TTITLE6=You're The Man
TTITLE7=Keep On Keeping On
TTITLE8=Lucky Once
TTITLE9=Ingredients Of Love
TTITLE10=Ask All Of The Above
TTITLE11=Room For Me
TTITLE12=Dealing With My Demons
TTITLE13=Invisible
TTITLE14=Little Drop Of Love
EXTD=
EXTT0=
EXTT1=
EXTT2=
EXTT3=
EXTT4=
EXTT5=
EXTT6=
EXTT7=
EXTT8=
EXTT9=
EXTT10=
EXTT11=
EXTT12=
EXTT13=
EXTT14=
PLAYORDER=
